# xmcd CD database file
#
# Track frame offsets:
#	150
#	19202
#	37803
#	56179
#	75005
#	93232
#	112284
#	130811
#	153462
#	172063
#	192304
#	212992
#	232655
#	253421
#	274943
#	297270
#	313549
#
# Disc length: 4525 seconds
#
# Revision: 0
# Processed by: cddbd v1.5.2PL0 Copyright (c) Steve Scherf et al.
# Submitted via: CDex 1.70beta2
#
DISCID=f111ab11
DTITLE=Celia Cruz - Regalo del Alma
DYEAR=1900
DGENRE=Salsa
TTITLE0=Rie y llora
TTITLE1=Me huele a rumba
TTITLE2=Maria la loca
TTITLE3=Ella tiene fuego
TTITLE4=Jose caridad
TTITLE5=La nina de la trenza negr
TTITLE6=No estes amargo
TTITLE7=Pena penita pena
TTITLE8=Pa la cola
TTITLE9=Diagnostico
TTITLE10=Yo vivire
TTITLE11=La negra tiene tumbao
TTITLE12=La vida es un carnaval
TTITLE13=Hay que empezar otra vez
TTITLE14=Quimbara
TTITLE15=Bemba colora
TTITLE16=Toromata
EXTD=
EXTT0=
EXTT1=
EXTT2=
EXTT3=
EXTT4=
EXTT5=
EXTT6=
EXTT7=
EXTT8=
EXTT9=
EXTT10=
EXTT11=
EXTT12=
EXTT13=
EXTT14=
EXTT15=
EXTT16=
PLAYORDER=
